<svg xmlns="http://www.w3.org/2000/svg" viewBox="0 0 512 512" role="img" aria-label="The Setter Circle">
<defs><radialGradient id="bg"><stop stop-color="#17210d"/><stop offset=".72" stop-color="#050706"/><stop offset="1"/></radialGradient><linearGradient id="lime" x1="0" y1="0" x2="1" y2="1"><stop stop-color="#efff9a"/><stop offset=".42" stop-color="#cfff32"/><stop offset="1" stop-color="#6f8e13"/></linearGradient><linearGradient id="metal"><stop stop-color="#fff"/><stop offset=".35" stop-color="#999"/><stop offset=".65" stop-color="#f7f7ef"/><stop offset="1" stop-color="#777"/></linearGradient><filter id="glow"><feGaussianBlur stdDeviation="8" result="b"/><feMerge><feMergeNode in="b"/><feMergeNode in="SourceGraphic"/></feMerge></filter></defs>
<circle cx="256" cy="256" r="248" fill="url(#bg)" stroke="#1b220f" stroke-width="5"/>
<circle cx="256" cy="256" r="235" fill="none" stroke="url(#lime)" stroke-width="3" filter="url(#glow)" opacity=".9"/>
<path d="M148 224a116 116 0 0 1 197-80" fill="none" stroke="url(#metal)" stroke-width="10" stroke-linecap="square"/>
<path d="M364 215a116 116 0 0 1-198 91" fill="none" stroke="url(#metal)" stroke-width="10" stroke-linecap="square"/>
<path d="M294 157c-25-23-75-22-87 13-12 36 31 51 61 63 34 14 52 33 43 65-8 29-43 47-79 38 37-2 58-21 61-43 4-27-26-38-57-51-39-16-61-38-47-76 14-39 70-51 105-9z" fill="url(#metal)"/>
<text x="256" y="374" text-anchor="middle" fill="#f2f1e9" font-family="Georgia,serif" font-size="22" letter-spacing="12">THE</text>
<text x="256" y="418" text-anchor="middle" fill="url(#metal)" font-family="Georgia,serif" font-size="38" letter-spacing="8">SETTER</text>
<text x="256" y="452" text-anchor="middle" fill="#cfff32" font-family="Georgia,serif" font-size="20" letter-spacing="13">CIRCLE</text>
</svg>